<svg width="48" height="48" viewBox="0 0 48 48" fill="none" xmlns="http://www.w3.org/2000/svg">
<mask id="path-1-inside-1_56_417" fill="white">
<path d="M28.3116 23.6446C28.0708 23.6446 27.8472 23.5784 27.6486 23.4719V23.4748C27.6486 23.8536 27.5014 24.2094 27.2342 24.4758C26.967 24.743 26.6115 24.8903 26.2331 24.8903C25.9888 24.8903 25.7624 24.8224 25.5617 24.7131C25.5414 25.0597 25.4029 25.3836 25.1557 25.631C24.8886 25.8982 24.5331 26.0454 24.1544 26.0454C23.4021 26.0454 22.7912 25.4541 22.7472 24.7129C22.5144 24.8387 22.2513 24.9046 21.9798 24.8872C21.2398 24.8387 20.6602 24.1993 20.6602 23.4312V17.0645L19.9353 18.3205C19.6592 18.8009 19.1423 19.0991 18.5858 19.0991C18.3146 19.0991 18.0467 19.028 17.8095 18.892C17.514 18.7208 17.3027 18.4458 17.2148 18.1169C17.1265 17.7878 17.1722 17.4436 17.343 17.1486C17.3432 17.1486 19.715 13.0414 19.8597 12.7891C19.8769 12.7512 19.9259 12.6411 19.9676 12.5474C20.0074 12.4578 20.0416 12.366 20.0743 12.2736C20.7896 10.2543 22.5606 8.99998 24.6965 8.99998C27.4702 8.99998 29.7268 11.4469 29.7268 14.4546L29.727 22.2289C29.727 22.6073 29.58 22.9628 29.313 23.2302C29.0459 23.4974 28.6904 23.6447 28.3115 23.6447L28.3116 23.6446ZM24.6965 9.75212C22.8612 9.75212 21.3984 10.7888 20.7833 12.5251C20.7439 12.6354 20.7029 12.7457 20.6551 12.8531C20.5163 13.1643 20.5163 13.1643 20.4772 13.2091L20.472 13.2046C20.2784 13.57 19.703 14.5663 17.9942 17.525C17.924 17.6463 17.9054 17.7872 17.9412 17.922C17.9775 18.0567 18.0645 18.1703 18.1849 18.2398C18.5585 18.4544 19.0702 18.3159 19.2832 17.9448L20.7107 15.4734C20.796 15.3261 20.9684 15.2538 21.1338 15.2986C21.2983 15.3426 21.4125 15.4918 21.4125 15.6619V23.4314C21.4125 23.798 21.6891 24.1144 22.0291 24.1368C22.2251 24.1471 22.408 24.0814 22.5453 23.9443C22.6702 23.8194 22.739 23.6531 22.739 23.4752V18.3938C22.739 18.186 22.9074 18.0176 23.1152 18.0176C23.323 18.0176 23.4915 18.1858 23.4915 18.3938L23.4912 24.6302C23.4912 24.9958 23.7888 25.2934 24.1544 25.2934C24.3321 25.2934 24.4989 25.2246 24.624 25.0997C24.7489 24.9746 24.8177 24.8078 24.8177 24.6302V18.3938C24.8177 18.186 24.9859 18.0176 25.1939 18.0176C25.4017 18.0176 25.5702 18.1858 25.5702 18.3938L25.5699 23.4168V23.4752C25.5699 23.8406 25.8675 24.1381 26.2334 24.1381C26.4108 24.1381 26.5771 24.0691 26.7029 23.9438C26.8278 23.8191 26.8966 23.6528 26.8966 23.4749V18.3936C26.8966 18.1858 27.0648 18.0173 27.2728 18.0173C27.4806 18.0173 27.6491 18.1855 27.6491 18.3936L27.6486 22.2291C27.6486 22.595 27.9462 22.8925 28.3116 22.8925C28.4894 22.8925 28.6558 22.8235 28.7806 22.6989C28.906 22.5736 28.9745 22.4067 28.9745 22.2291L28.9748 14.4548C28.9748 11.862 27.0556 9.7522 24.6965 9.7522L24.6965 9.75212Z"/>
</mask>
<path d="M28.3116 23.6446C28.0708 23.6446 27.8472 23.5784 27.6486 23.4719V23.4748C27.6486 23.8536 27.5014 24.2094 27.2342 24.4758C26.967 24.743 26.6115 24.8903 26.2331 24.8903C25.9888 24.8903 25.7624 24.8224 25.5617 24.7131C25.5414 25.0597 25.4029 25.3836 25.1557 25.631C24.8886 25.8982 24.5331 26.0454 24.1544 26.0454C23.4021 26.0454 22.7912 25.4541 22.7472 24.7129C22.5144 24.8387 22.2513 24.9046 21.9798 24.8872C21.2398 24.8387 20.6602 24.1993 20.6602 23.4312V17.0645L19.9353 18.3205C19.6592 18.8009 19.1423 19.0991 18.5858 19.0991C18.3146 19.0991 18.0467 19.028 17.8095 18.892C17.514 18.7208 17.3027 18.4458 17.2148 18.1169C17.1265 17.7878 17.1722 17.4436 17.343 17.1486C17.3432 17.1486 19.715 13.0414 19.8597 12.7891C19.8769 12.7512 19.9259 12.6411 19.9676 12.5474C20.0074 12.4578 20.0416 12.366 20.0743 12.2736C20.7896 10.2543 22.5606 8.99998 24.6965 8.99998C27.4702 8.99998 29.7268 11.4469 29.7268 14.4546L29.727 22.2289C29.727 22.6073 29.58 22.9628 29.313 23.2302C29.0459 23.4974 28.6904 23.6447 28.3115 23.6447L28.3116 23.6446ZM24.6965 9.75212C22.8612 9.75212 21.3984 10.7888 20.7833 12.5251C20.7439 12.6354 20.7029 12.7457 20.6551 12.8531C20.5163 13.1643 20.5163 13.1643 20.4772 13.2091L20.472 13.2046C20.2784 13.57 19.703 14.5663 17.9942 17.525C17.924 17.6463 17.9054 17.7872 17.9412 17.922C17.9775 18.0567 18.0645 18.1703 18.1849 18.2398C18.5585 18.4544 19.0702 18.3159 19.2832 17.9448L20.7107 15.4734C20.796 15.3261 20.9684 15.2538 21.1338 15.2986C21.2983 15.3426 21.4125 15.4918 21.4125 15.6619V23.4314C21.4125 23.798 21.6891 24.1144 22.0291 24.1368C22.2251 24.1471 22.408 24.0814 22.5453 23.9443C22.6702 23.8194 22.739 23.6531 22.739 23.4752V18.3938C22.739 18.186 22.9074 18.0176 23.1152 18.0176C23.323 18.0176 23.4915 18.1858 23.4915 18.3938L23.4912 24.6302C23.4912 24.9958 23.7888 25.2934 24.1544 25.2934C24.3321 25.2934 24.4989 25.2246 24.624 25.0997C24.7489 24.9746 24.8177 24.8078 24.8177 24.6302V18.3938C24.8177 18.186 24.9859 18.0176 25.1939 18.0176C25.4017 18.0176 25.5702 18.1858 25.5702 18.3938L25.5699 23.4168V23.4752C25.5699 23.8406 25.8675 24.1381 26.2334 24.1381C26.4108 24.1381 26.5771 24.0691 26.7029 23.9438C26.8278 23.8191 26.8966 23.6528 26.8966 23.4749V18.3936C26.8966 18.1858 27.0648 18.0173 27.2728 18.0173C27.4806 18.0173 27.6491 18.1855 27.6491 18.3936L27.6486 22.2291C27.6486 22.595 27.9462 22.8925 28.3116 22.8925C28.4894 22.8925 28.6558 22.8235 28.7806 22.6989C28.906 22.5736 28.9745 22.4067 28.9745 22.2291L28.9748 14.4548C28.9748 11.862 27.0556 9.7522 24.6965 9.7522L24.6965 9.75212Z" fill="#1E318D"/>
<path d="M28.3116 23.6446V21.6446H35.3777L29.3598 25.3479L28.3116 23.6446ZM27.6486 23.4719H25.6486V20.1302L28.5937 21.7093L27.6486 23.4719ZM27.2342 24.4758L25.82 23.0616L25.8219 23.0598L27.2342 24.4758ZM25.5617 24.7131L23.5651 24.5964L23.7491 21.4487L26.5182 22.9566L25.5617 24.7131ZM25.1557 25.631L26.5707 27.0445L26.5699 27.0452L25.1557 25.631ZM22.7472 24.7129L21.7962 22.9534L24.5576 21.461L24.7437 24.5943L22.7472 24.7129ZM21.9798 24.8872L21.8516 26.8831L21.8489 26.8829L21.9798 24.8872ZM20.6602 17.0645L18.9281 16.0647L22.6602 9.59895V17.0645H20.6602ZM19.9353 18.3205L18.2013 17.3238L18.2031 17.3207L19.9353 18.3205ZM17.8095 18.892L16.8151 20.6274L16.8064 20.6223L17.8095 18.892ZM17.2148 18.1169L19.1465 17.5984L19.1471 17.6006L17.2148 18.1169ZM17.343 17.1486L15.6122 16.1464L16.19 15.1486H17.343V17.1486ZM19.8597 12.7891L21.6812 13.615L21.6419 13.7016L21.5946 13.7841L19.8597 12.7891ZM19.9676 12.5474L18.1401 11.7347L18.1402 11.7346L19.9676 12.5474ZM20.0743 12.2736L21.9595 12.9414L21.9593 12.9419L20.0743 12.2736ZM29.7268 14.4546L27.7268 14.4546V14.4546H29.7268ZM29.727 22.2289L31.727 22.2289V22.2289H29.727ZM29.313 23.2302L30.7286 24.6431L30.7273 24.6445L29.313 23.2302ZM28.3115 23.6447V25.6447H21.2455L27.2633 21.9413L28.3115 23.6447ZM24.6965 9.75212V7.75212H27.348L26.6196 10.3016L24.6965 9.75212ZM20.7833 12.5251L22.6685 13.193L22.6669 13.1973L20.7833 12.5251ZM20.6551 12.8531L22.4822 13.6665L22.4817 13.6675L20.6551 12.8531ZM20.4772 13.2091L21.9833 14.525L20.6749 16.0225L19.17 14.7227L20.4772 13.2091ZM20.472 13.2046L18.7049 12.268L19.88 10.0507L21.7793 11.691L20.472 13.2046ZM17.9942 17.525L19.7261 18.5253L19.7253 18.5267L17.9942 17.525ZM17.9412 17.922L16.01 18.4419L16.0083 18.4357L17.9412 17.922ZM18.1849 18.2398L17.1887 19.9741L17.1849 19.9719L18.1849 18.2398ZM19.2832 17.9448L17.5486 16.9493L17.5513 16.9445L19.2832 17.9448ZM20.7107 15.4734L18.9788 14.4731L18.9801 14.471L20.7107 15.4734ZM21.1338 15.2986L20.6163 17.2305L20.6113 17.2291L21.1338 15.2986ZM22.0291 24.1368L21.9235 26.134L21.9106 26.1333L21.8978 26.1324L22.0291 24.1368ZM22.5453 23.9443L23.9595 25.3585L23.9583 25.3597L22.5453 23.9443ZM23.4915 18.3938H25.4915V18.3939L23.4915 18.3938ZM23.4912 24.6302H21.4912V24.6301L23.4912 24.6302ZM24.624 25.0997L26.0395 26.5126L26.0368 26.5153L24.624 25.0997ZM25.5702 18.3938H27.5702V18.3939L25.5702 18.3938ZM25.5699 23.4168H23.5699V23.4167L25.5699 23.4168ZM26.7029 23.9438L28.1158 25.3593L28.1145 25.3606L26.7029 23.9438ZM27.6491 18.3936H29.6491V18.3938L27.6491 18.3936ZM27.6486 22.2291H25.6486L25.6486 22.2289L27.6486 22.2291ZM28.7806 22.6989L30.1949 24.1131L30.1935 24.1144L28.7806 22.6989ZM28.9745 22.2291H26.9745V22.229L28.9745 22.2291ZM28.9748 14.4548H30.9748V14.4548L28.9748 14.4548ZM24.6965 9.7522V11.7522H22.0451L22.7735 9.20276L24.6965 9.7522ZM28.3116 25.6446C27.6955 25.6446 27.1499 25.4739 26.7035 25.2345L28.5937 21.7093C28.5446 21.683 28.4461 21.6446 28.3116 21.6446V25.6446ZM29.6486 23.4719V23.4748H25.6486V23.4719H29.6486ZM29.6486 23.4748C29.6486 24.3824 29.2918 25.2484 28.6466 25.8919L25.8219 23.0598C25.711 23.1703 25.6486 23.3248 25.6486 23.4748H29.6486ZM28.6484 25.8901C28.0059 26.5326 27.1415 26.8903 26.2331 26.8903V22.8903C26.0816 22.8903 25.9282 22.9534 25.82 23.0616L28.6484 25.8901ZM26.2331 26.8903C25.6092 26.8903 25.0567 26.7155 24.6052 26.4695L26.5182 22.9566C26.4681 22.9294 26.3684 22.8903 26.2331 22.8903V26.8903ZM27.5583 24.8298C27.5108 25.641 27.1808 26.4338 26.5707 27.0445L23.7408 24.2175C23.625 24.3334 23.572 24.4783 23.5651 24.5964L27.5583 24.8298ZM26.5699 27.0452C25.9273 27.6879 25.0629 28.0454 24.1544 28.0454V24.0454C24.0033 24.0454 23.8499 24.1084 23.7415 24.2168L26.5699 27.0452ZM24.1544 28.0454C22.3226 28.0454 20.8562 26.6081 20.7507 24.8314L24.7437 24.5943C24.7262 24.3 24.4817 24.0454 24.1544 24.0454V28.0454ZM23.6981 26.4723C23.1685 26.7586 22.5341 26.9269 21.8516 26.8831L22.108 22.8913C21.9684 22.8823 21.8603 22.9188 21.7962 22.9534L23.6981 26.4723ZM21.8489 26.8829C19.9983 26.7615 18.6602 25.1928 18.6602 23.4312H22.6602C22.6602 23.2058 22.4813 22.9158 22.1107 22.8915L21.8489 26.8829ZM18.6602 23.4312V17.0645H22.6602V23.4312H18.6602ZM22.3924 18.0644L21.6674 19.3203L18.2031 17.3207L18.9281 16.0647L22.3924 18.0644ZM21.6692 19.3172C21.0345 20.4215 19.8544 21.0991 18.5858 21.0991V17.0991C18.4301 17.0991 18.2838 17.1803 18.2013 17.3238L21.6692 19.3172ZM18.5858 21.0991C17.965 21.0991 17.3545 20.9364 16.8151 20.6274L18.8038 17.1567C18.739 17.1196 18.6642 17.0991 18.5858 17.0991V21.0991ZM16.8064 20.6223C16.0562 20.1874 15.5083 19.4777 15.2826 18.6332L19.1471 17.6006C19.0972 17.414 18.9719 17.2542 18.8126 17.1618L16.8064 20.6223ZM15.2832 18.6354C15.0567 17.7917 15.1756 16.9005 15.6122 16.1464L19.0738 18.1507C19.1688 17.9867 19.1962 17.7838 19.1465 17.5984L15.2832 18.6354ZM17.343 15.1486C16.3619 15.4057 15.6276 16.1203 15.6221 16.1295C15.6203 16.1326 15.6175 16.1373 15.6166 16.1388C15.6153 16.1411 15.6143 16.1429 15.6142 16.143C15.6138 16.1437 15.6136 16.1439 15.6141 16.1431C15.6149 16.1417 15.6163 16.1393 15.6185 16.1355C15.6228 16.128 15.6294 16.1167 15.6381 16.1017C15.6554 16.0717 15.6809 16.0276 15.7134 15.9712C15.7785 15.8585 15.8717 15.6971 15.984 15.5027C16.2087 15.1137 16.5096 14.5925 16.8151 14.0634C17.4277 13.0025 18.0543 11.9169 18.1248 11.7941L21.5946 13.7841C21.5204 13.9136 20.8888 15.0077 20.2792 16.0635C19.9736 16.5927 19.6726 17.114 19.4479 17.5031C19.3356 17.6976 19.2423 17.8591 19.1771 17.972C19.1445 18.0284 19.1189 18.0728 19.1014 18.1031C19.0926 18.1182 19.0858 18.13 19.0811 18.1381C19.0788 18.1421 19.0768 18.1455 19.0753 18.1481C19.0747 18.1492 19.0737 18.151 19.0727 18.1527C19.0723 18.1533 19.0711 18.1554 19.0696 18.158C19.0686 18.1596 19.0658 18.1644 19.064 18.1675C19.0584 18.1768 18.3241 18.8914 17.343 19.1486V15.1486ZM18.0382 11.9632C18.0516 11.9336 18.0968 11.8321 18.1401 11.7347L21.795 13.3601C21.7549 13.4502 21.7022 13.5687 21.6812 13.615L18.0382 11.9632ZM18.1402 11.7346C18.148 11.7169 18.1617 11.683 18.1893 11.6053L21.9593 12.9419C21.9214 13.0489 21.8668 13.1988 21.795 13.3601L18.1402 11.7346ZM18.1891 11.6058C19.186 8.79124 21.71 6.99998 24.6965 6.99998V11C23.4111 11 22.3931 11.7174 21.9595 12.9414L18.1891 11.6058ZM24.6965 6.99998C28.7242 6.99998 31.7268 10.4979 31.7268 14.4546H27.7268C27.7268 12.3959 26.2162 11 24.6965 11V6.99998ZM31.7268 14.4545L31.727 22.2289L27.727 22.229L27.7268 14.4546L31.7268 14.4545ZM31.727 22.2289C31.727 23.1365 31.3702 24.0003 30.7286 24.6431L27.8975 21.8173C27.7898 21.9253 27.727 22.0781 27.727 22.2289H31.727ZM30.7273 24.6445C30.0845 25.2872 29.22 25.6447 28.3115 25.6447V21.6447C28.1607 21.6447 28.0073 21.7076 27.8988 21.816L30.7273 24.6445ZM27.2633 21.9413L27.2634 21.9413L29.3598 25.3479L29.3597 25.348L27.2633 21.9413ZM24.6965 11.7521C23.7127 11.7521 23.0022 12.251 22.6684 13.193L18.8981 11.8573C19.7946 9.32655 22.0098 7.75212 24.6965 7.75212V11.7521ZM22.6669 13.1973C22.6235 13.3191 22.5619 13.4874 22.4822 13.6665L18.828 12.0397C18.8439 12.0039 18.8644 11.9517 18.8996 11.853L22.6669 13.1973ZM22.4817 13.6675C22.4248 13.7952 22.3655 13.9297 22.3179 14.025C22.287 14.0868 22.232 14.1922 22.1503 14.3111C22.0674 14.4317 21.9854 14.5226 21.9833 14.525L18.9711 11.8931C18.9886 11.8731 18.9212 11.9473 18.8537 12.0455C18.7873 12.1421 18.7483 12.2197 18.7397 12.237C18.7346 12.2471 18.7329 12.2511 18.736 12.2445C18.7388 12.2384 18.7438 12.2275 18.7522 12.209C18.7695 12.1709 18.7928 12.1186 18.8284 12.0386L22.4817 13.6675ZM19.17 14.7227L19.1648 14.7182L21.7793 11.691L21.7845 11.6954L19.17 14.7227ZM22.2392 14.1411C22.023 14.5491 21.4171 15.5976 19.7261 18.5253L16.2624 16.5247C17.989 13.5351 18.5337 12.591 18.7049 12.268L22.2392 14.1411ZM19.7253 18.5267C19.9205 18.1895 19.9744 17.7854 19.8741 17.4083L16.0083 18.4357C15.8365 17.7891 15.9276 17.1032 16.2632 16.5233L19.7253 18.5267ZM19.8725 17.402C19.772 17.029 19.5263 16.7049 19.1848 16.5077L17.1849 19.9719C16.6026 19.6358 16.183 19.0845 16.01 18.4419L19.8725 17.402ZM19.181 16.5055C18.8599 16.3211 18.5279 16.3125 18.2743 16.3807C18.0214 16.4488 17.7355 16.6236 17.5486 16.9493L21.0178 18.9404C20.2527 20.2736 18.5165 20.7368 17.1887 19.9741L19.181 16.5055ZM17.5513 16.9445L18.9788 14.4731L22.4426 16.4737L21.0151 18.9452L17.5513 16.9445ZM18.9801 14.471C19.5151 13.5472 20.608 13.0843 21.6564 13.368L20.6113 17.2291C21.3289 17.4233 22.0769 17.105 22.4414 16.4758L18.9801 14.471ZM21.6514 13.3667C22.6912 13.6453 23.4125 14.5875 23.4125 15.6619H19.4125C19.4125 16.396 19.9054 17.04 20.6163 17.2304L21.6514 13.3667ZM23.4125 15.6619V23.4314H19.4125V15.6619H23.4125ZM23.4125 23.4314C23.4125 22.8716 22.9941 22.1959 22.1605 22.1411L21.8978 26.1324C20.3842 26.0328 19.4125 24.7244 19.4125 23.4314H23.4125ZM22.1348 22.1395C21.8005 22.1219 21.4204 22.2413 21.1323 22.5288L23.9583 25.3597C23.3955 25.9215 22.6498 26.1724 21.9235 26.134L22.1348 22.1395ZM21.1311 22.5301C20.8789 22.7823 20.739 23.1255 20.739 23.4752H24.739C24.739 24.1806 24.4615 24.8565 23.9595 25.3585L21.1311 22.5301ZM20.739 23.4752V18.3938H24.739V23.4752H20.739ZM20.739 18.3938C20.739 17.0815 21.8029 16.0176 23.1152 16.0176V20.0176C24.012 20.0176 24.739 19.2906 24.739 18.3938H20.739ZM23.1152 16.0176C24.4268 16.0176 25.4915 17.0804 25.4915 18.3938H21.4915C21.4915 19.2912 22.2193 20.0176 23.1152 20.0176V16.0176ZM25.4915 18.3939L25.4912 24.6303L21.4912 24.6301L21.4915 18.3937L25.4915 18.3939ZM25.4912 24.6302C25.4912 23.8913 24.8934 23.2934 24.1544 23.2934V27.2934C22.6842 27.2934 21.4912 26.1004 21.4912 24.6302H25.4912ZM24.1544 23.2934C23.8053 23.2934 23.4631 23.4327 23.2112 23.6842L26.0368 26.5153C25.5347 27.0165 24.8589 27.2934 24.1544 27.2934V23.2934ZM23.2085 23.6869C22.9569 23.9389 22.8177 24.2811 22.8177 24.6302H26.8177C26.8177 25.3346 26.5408 26.0104 26.0395 26.5126L23.2085 23.6869ZM22.8177 24.6302V18.3938H26.8177V24.6302H22.8177ZM22.8177 18.3938C22.8177 17.0823 23.8805 16.0176 25.1939 16.0176V20.0176C26.0913 20.0176 26.8177 19.2898 26.8177 18.3938H22.8177ZM25.1939 16.0176C26.5055 16.0176 27.5702 17.0804 27.5702 18.3938H23.5702C23.5702 19.2912 24.2979 20.0176 25.1939 20.0176V16.0176ZM27.5702 18.3939L27.5699 23.4168L23.5699 23.4167L23.5702 18.3937L27.5702 18.3939ZM27.5699 23.4168V23.4752H23.5699V23.4168H27.5699ZM27.5699 23.4752C27.5699 22.735 26.9711 22.1381 26.2334 22.1381V26.1381C24.7639 26.1381 23.5699 24.9461 23.5699 23.4752H27.5699ZM26.2334 22.1381C25.8789 22.1381 25.5385 22.2807 25.2914 22.5269L28.1145 25.3606C27.6157 25.8575 26.9426 26.1381 26.2334 26.1381V22.1381ZM25.29 22.5282C25.0363 22.7815 24.8966 23.1256 24.8966 23.4749H28.8966C28.8966 24.18 28.6193 24.8568 28.1158 25.3593L25.29 22.5282ZM24.8966 23.4749V18.3936H28.8966V23.4749H24.8966ZM24.8966 18.3936C24.8966 17.082 25.9594 16.0173 27.2728 16.0173V20.0173C28.1702 20.0173 28.8966 19.2895 28.8966 18.3936H24.8966ZM27.2728 16.0173C28.5844 16.0173 29.6491 17.0801 29.6491 18.3936H25.6491C25.6491 19.2909 26.3769 20.0173 27.2728 20.0173V16.0173ZM29.6491 18.3938L29.6486 22.2294L25.6486 22.2289L25.6491 18.3933L29.6491 18.3938ZM29.6486 22.2291C29.6486 21.4914 29.0517 20.8925 28.3116 20.8925V24.8925C26.8407 24.8925 25.6486 23.6986 25.6486 22.2291H29.6486ZM28.3116 20.8925C27.9603 20.8925 27.6183 21.0333 27.3678 21.2833L30.1935 24.1144C29.6933 24.6138 29.0186 24.8925 28.3116 24.8925V20.8925ZM27.3664 21.2847C27.1133 21.5378 26.9745 21.8811 26.9745 22.2291H30.9745C30.9745 22.9324 30.6986 23.6093 30.1949 24.1131L27.3664 21.2847ZM26.9745 22.229L26.9748 14.4547L30.9748 14.4548L30.9745 22.2292L26.9745 22.229ZM26.9748 14.4548C26.9748 12.7843 25.7772 11.7522 24.6965 11.7522V7.7522C28.334 7.7522 30.9748 10.9397 30.9748 14.4548H26.9748ZM22.7735 9.20276L22.7735 9.20268L26.6196 10.3016L26.6196 10.3016L22.7735 9.20276Z" fill="#1E318D" mask="url(#path-1-inside-1_56_417)"/>
<mask id="path-3-inside-2_56_417" fill="white">
<path d="M13.5291 29.048L18.9888 25.7727C19.647 25.3774 20.494 25.5454 20.9162 26.1553C21.0703 26.3775 21.149 26.6364 21.1612 26.9001C21.3648 26.7938 21.5863 26.7361 21.8117 26.7361C21.9272 26.7361 22.0431 26.7505 22.1576 26.779C22.5244 26.8706 22.8335 27.0999 23.0279 27.424C23.2225 27.7487 23.2793 28.1291 23.1876 28.4955C23.103 28.8346 22.8969 29.1199 22.6102 29.3157C22.8107 29.4339 22.9836 29.5953 23.1066 29.8008C23.3012 30.1254 23.358 30.5057 23.2665 30.8725C23.1749 31.2389 22.9457 31.548 22.621 31.7429L22.6191 31.744C22.8161 31.8621 22.986 32.0218 23.1075 32.2242C23.3024 32.5488 23.3591 32.9293 23.2675 33.2961C23.1756 33.6627 22.9464 33.9718 22.6222 34.1664L15.9558 38.1657C14.7116 38.9119 13.2733 39.1694 11.9063 38.8902C10.5271 38.6084 9.38494 37.8157 8.69043 36.6579C7.59135 34.8261 7.75606 32.6619 9.11946 31.0101C9.18189 30.9347 9.24338 30.8579 9.29922 30.7783C9.35836 30.6942 9.42739 30.5952 9.45094 30.5613C9.59207 30.3092 11.8948 26.1603 11.8946 26.1608C12.1271 25.7412 12.563 25.5037 13.0125 25.5039C13.2222 25.5039 13.4349 25.5555 13.6312 25.6644C13.8682 25.7968 14.0673 25.9898 14.2065 26.2223C14.4928 26.6994 14.5029 27.2964 14.2334 27.7796L13.5291 29.048ZM13.5618 26.6091C13.4888 26.4873 13.3884 26.3902 13.2657 26.3214C13.0119 26.181 12.6925 26.2724 12.5528 26.5252C10.905 29.4937 10.3433 30.5054 10.1266 30.8654L10.1315 30.8666C10.1134 30.9269 10.1134 30.9269 9.91499 31.2103C9.84761 31.3062 9.77434 31.3983 9.69965 31.489C8.52729 32.9094 8.39116 34.6969 9.33518 36.2709C9.91994 37.2458 10.8864 37.9142 12.0566 38.1531C13.2395 38.3937 14.4863 38.1699 15.5684 37.5206L22.2354 33.5211C22.3876 33.4299 22.4951 33.285 22.5379 33.1133C22.5808 32.9417 22.5542 32.7634 22.4628 32.6112C22.2748 32.2979 21.8665 32.1949 21.5531 32.3836L18.2642 34.3568C18.0861 34.4637 17.8547 34.4062 17.748 34.2279C17.641 34.0498 17.6988 33.8187 17.8769 33.7117L21.166 31.7386L22.2343 31.0977C22.3864 31.0063 22.4941 30.8614 22.537 30.6901C22.5799 30.5184 22.5532 30.3398 22.4618 30.1878C22.2736 29.8743 21.8653 29.7723 21.5522 29.9603L17.1948 32.5742C17.0162 32.6814 16.7856 32.6235 16.6786 32.4454C16.5717 32.2673 16.6296 32.0361 16.8075 31.9292L22.1553 28.7211C22.3075 28.6296 22.415 28.485 22.4578 28.3132C22.5007 28.1417 22.4741 27.9634 22.3829 27.8112C22.2917 27.6592 22.1468 27.5518 21.9751 27.5089C21.8024 27.466 21.6248 27.4927 21.473 27.5836L20.4831 28.1775C20.4828 28.1775 20.4828 28.1778 20.4826 28.1778H20.4824L16.1252 30.7917C15.9466 30.8992 15.7157 30.8412 15.609 30.6629C15.5021 30.4848 15.56 30.2536 15.7379 30.1467L20.0953 27.5327C20.2475 27.4413 20.3551 27.2964 20.398 27.1251C20.4451 26.9371 20.4093 26.7449 20.2976 26.5837C20.104 26.3036 19.6898 26.2291 19.3758 26.4179L12.7136 30.4146C12.5677 30.5017 12.3809 30.4805 12.2586 30.3625C12.1361 30.2442 12.1086 30.0583 12.191 29.9097L13.5764 27.4137C13.7154 27.1642 13.7099 26.8561 13.5617 26.6092L13.5618 26.6091Z"/>
</mask>
<path d="M13.5291 29.048L18.9888 25.7727C19.647 25.3774 20.494 25.5454 20.9162 26.1553C21.0703 26.3775 21.149 26.6364 21.1612 26.9001C21.3648 26.7938 21.5863 26.7361 21.8117 26.7361C21.9272 26.7361 22.0431 26.7505 22.1576 26.779C22.5244 26.8706 22.8335 27.0999 23.0279 27.424C23.2225 27.7487 23.2793 28.1291 23.1876 28.4955C23.103 28.8346 22.8969 29.1199 22.6102 29.3157C22.8107 29.4339 22.9836 29.5953 23.1066 29.8008C23.3012 30.1254 23.358 30.5057 23.2665 30.8725C23.1749 31.2389 22.9457 31.548 22.621 31.7429L22.6191 31.744C22.8161 31.8621 22.986 32.0218 23.1075 32.2242C23.3024 32.5488 23.3591 32.9293 23.2675 33.2961C23.1756 33.6627 22.9464 33.9718 22.6222 34.1664L15.9558 38.1657C14.7116 38.9119 13.2733 39.1694 11.9063 38.8902C10.5271 38.6084 9.38494 37.8157 8.69043 36.6579C7.59135 34.8261 7.75606 32.6619 9.11946 31.0101C9.18189 30.9347 9.24338 30.8579 9.29922 30.7783C9.35836 30.6942 9.42739 30.5952 9.45094 30.5613C9.59207 30.3092 11.8948 26.1603 11.8946 26.1608C12.1271 25.7412 12.563 25.5037 13.0125 25.5039C13.2222 25.5039 13.4349 25.5555 13.6312 25.6644C13.8682 25.7968 14.0673 25.9898 14.2065 26.2223C14.4928 26.6994 14.5029 27.2964 14.2334 27.7796L13.5291 29.048ZM13.5618 26.6091C13.4888 26.4873 13.3884 26.3902 13.2657 26.3214C13.0119 26.181 12.6925 26.2724 12.5528 26.5252C10.905 29.4937 10.3433 30.5054 10.1266 30.8654L10.1315 30.8666C10.1134 30.9269 10.1134 30.9269 9.91499 31.2103C9.84761 31.3062 9.77434 31.3983 9.69965 31.489C8.52729 32.9094 8.39116 34.6969 9.33518 36.2709C9.91994 37.2458 10.8864 37.9142 12.0566 38.1531C13.2395 38.3937 14.4863 38.1699 15.5684 37.5206L22.2354 33.5211C22.3876 33.4299 22.4951 33.285 22.5379 33.1133C22.5808 32.9417 22.5542 32.7634 22.4628 32.6112C22.2748 32.2979 21.8665 32.1949 21.5531 32.3836L18.2642 34.3568C18.0861 34.4637 17.8547 34.4062 17.748 34.2279C17.641 34.0498 17.6988 33.8187 17.8769 33.7117L21.166 31.7386L22.2343 31.0977C22.3864 31.0063 22.4941 30.8614 22.537 30.6901C22.5799 30.5184 22.5532 30.3398 22.4618 30.1878C22.2736 29.8743 21.8653 29.7723 21.5522 29.9603L17.1948 32.5742C17.0162 32.6814 16.7856 32.6235 16.6786 32.4454C16.5717 32.2673 16.6296 32.0361 16.8075 31.9292L22.1553 28.7211C22.3075 28.6296 22.415 28.485 22.4578 28.3132C22.5007 28.1417 22.4741 27.9634 22.3829 27.8112C22.2917 27.6592 22.1468 27.5518 21.9751 27.5089C21.8024 27.466 21.6248 27.4927 21.473 27.5836L20.4831 28.1775C20.4828 28.1775 20.4828 28.1778 20.4826 28.1778H20.4824L16.1252 30.7917C15.9466 30.8992 15.7157 30.8412 15.609 30.6629C15.5021 30.4848 15.56 30.2536 15.7379 30.1467L20.0953 27.5327C20.2475 27.4413 20.3551 27.2964 20.398 27.1251C20.4451 26.9371 20.4093 26.7449 20.2976 26.5837C20.104 26.3036 19.6898 26.2291 19.3758 26.4179L12.7136 30.4146C12.5677 30.5017 12.3809 30.4805 12.2586 30.3625C12.1361 30.2442 12.1086 30.0583 12.191 29.9097L13.5764 27.4137C13.7154 27.1642 13.7099 26.8561 13.5617 26.6092L13.5618 26.6091Z" fill="#1E318D"/>
<path d="M13.5291 29.048L14.5579 30.7631L8.15704 34.603L11.7805 28.0771L13.5291 29.048ZM18.9888 25.7727L20.0185 27.4873L20.0177 27.4878L18.9888 25.7727ZM20.9162 26.1553L19.2728 27.2951L19.2717 27.2936L20.9162 26.1553ZM21.1612 26.9001L22.0867 28.6731L19.3088 30.1231L19.1634 26.9929L21.1612 26.9001ZM22.1576 26.779L22.6407 24.8382L22.6423 24.8386L22.1576 26.779ZM23.0279 27.424L24.7431 26.3955L24.7433 26.3957L23.0279 27.424ZM23.1876 28.4955L21.2471 28.0114L21.2474 28.0102L23.1876 28.4955ZM22.6102 29.3157L21.594 31.0383L18.8828 29.439L21.4824 27.664L22.6102 29.3157ZM23.1066 29.8008L21.3912 30.829L21.3906 30.828L23.1066 29.8008ZM23.2665 30.8725L25.2072 31.3562L25.2068 31.3579L23.2665 30.8725ZM22.621 31.7429L21.561 30.0469L21.5763 30.0373L21.5917 30.0281L22.621 31.7429ZM22.6191 31.744L21.5911 33.4596L18.7882 31.7799L21.5591 30.048L22.6191 31.744ZM23.1075 32.2242L24.822 31.1943L24.8224 31.195L23.1075 32.2242ZM23.2675 33.2961L25.2078 33.7809L25.2075 33.7824L23.2675 33.2961ZM22.6222 34.1664L23.6517 35.8811L23.6511 35.8815L22.6222 34.1664ZM15.9558 38.1657L16.9847 39.8808L16.9844 39.881L15.9558 38.1657ZM11.9063 38.8902L11.5061 40.8498L11.506 40.8497L11.9063 38.8902ZM8.69043 36.6579L10.4054 35.6289L10.4055 35.6291L8.69043 36.6579ZM9.11946 31.0101L7.57701 29.737L7.5791 29.7345L9.11946 31.0101ZM9.29922 30.7783L7.66164 29.6301L7.66314 29.628L9.29922 30.7783ZM9.45094 30.5613L11.1961 31.5383L11.1489 31.6226L11.0937 31.7021L9.45094 30.5613ZM11.8946 26.1608L13.6439 27.1303L10.1057 25.2664L11.8946 26.1608ZM13.0125 25.5039V27.5039L13.0114 27.5039L13.0125 25.5039ZM13.6312 25.6644L14.6012 23.9154L14.6066 23.9184L13.6312 25.6644ZM14.2065 26.2223L12.4915 27.2513L12.4906 27.2497L14.2065 26.2223ZM14.2334 27.7796L12.4848 26.8087L12.4867 26.8052L14.2334 27.7796ZM13.5618 26.6091L15.2771 25.5806L15.9708 26.7375L15.1581 27.8141L13.5618 26.6091ZM13.2657 26.3214L14.2341 24.5715L14.2435 24.5767L13.2657 26.3214ZM12.5528 26.5252L14.3033 27.4925L14.3014 27.4958L12.5528 26.5252ZM10.1266 30.8654L9.66331 32.811L7.00204 32.1774L8.41317 29.8337L10.1266 30.8654ZM10.1315 30.8666L10.5947 28.921L12.6575 29.4121L12.0467 31.4426L10.1315 30.8666ZM9.91499 31.2103L11.5535 32.3571L11.5514 32.3602L9.91499 31.2103ZM9.69965 31.489L11.2436 32.7603L11.2421 32.7621L9.69965 31.489ZM9.33518 36.2709L7.62005 37.2997L7.62002 37.2996L9.33518 36.2709ZM12.0566 38.1531L11.658 40.113L11.6565 40.1127L12.0566 38.1531ZM15.5684 37.5206L14.5394 35.8056L14.5396 35.8055L15.5684 37.5206ZM22.2354 33.5211L21.2066 31.806L21.2076 31.8054L22.2354 33.5211ZM22.5379 33.1133L20.5975 32.6288L20.5976 32.6282L22.5379 33.1133ZM22.4628 32.6112L20.7483 33.641L20.7478 33.6402L22.4628 32.6112ZM21.5531 32.3836L22.585 34.0969L22.582 34.0987L21.5531 32.3836ZM18.2642 34.3568L17.2345 32.6422L17.2353 32.6417L18.2642 34.3568ZM17.748 34.2279L19.4626 33.1982L19.4642 33.2009L17.748 34.2279ZM17.8769 33.7117L16.8472 31.9971L16.848 31.9966L17.8769 33.7117ZM21.166 31.7386L22.1949 33.4536L22.1949 33.4536L21.166 31.7386ZM22.2343 31.0977L23.264 32.8122L23.2631 32.8128L22.2343 31.0977ZM22.537 30.6901L24.4774 31.1746L24.4771 31.1758L22.537 30.6901ZM22.4618 30.1878L20.748 31.2188L20.7471 31.2172L22.4618 30.1878ZM21.5522 29.9603L22.5818 31.6749L22.5811 31.6753L21.5522 29.9603ZM17.1948 32.5742L16.1655 30.8594L16.166 30.8592L17.1948 32.5742ZM16.6786 32.4454L18.3932 31.4157L18.3932 31.4157L16.6786 32.4454ZM16.8075 31.9292L15.7768 30.2152L15.7786 30.2141L16.8075 31.9292ZM22.1553 28.7211L23.1851 30.4356L23.1842 30.4361L22.1553 28.7211ZM22.4578 28.3132L20.5174 27.8288L20.5176 27.8282L22.4578 28.3132ZM22.3829 27.8112L24.0979 26.7822L24.0986 26.7833L22.3829 27.8112ZM21.9751 27.5089L22.4571 25.5678L22.4595 25.5685L21.9751 27.5089ZM21.473 27.5836L20.4441 25.8686L20.4448 25.8681L21.473 27.5836ZM20.4831 28.1775L21.512 29.8926L21.037 30.1775H20.4831V28.1775ZM20.4824 28.1778L19.4535 26.4627L19.9284 26.1778H20.4824V28.1778ZM16.1252 30.7917L15.0942 29.0779L15.0963 29.0767L16.1252 30.7917ZM15.609 30.6629L17.3236 29.6332L17.3252 29.6359L15.609 30.6629ZM15.7379 30.1467L14.7072 28.4327L14.709 28.4316L15.7379 30.1467ZM20.0953 27.5327L21.125 29.2472L21.1241 29.2478L20.0953 27.5327ZM20.398 27.1251L18.4579 26.6394L18.458 26.6389L20.398 27.1251ZM20.2976 26.5837L18.6538 27.7229L18.6525 27.7211L20.2976 26.5837ZM19.3758 26.4179L20.4059 28.1322L20.4046 28.1329L19.3758 26.4179ZM12.7136 30.4146L13.7425 32.1296L13.7397 32.1313L12.7136 30.4146ZM12.2586 30.3625L10.8696 31.8014L10.8695 31.8014L12.2586 30.3625ZM12.191 29.9097L10.4421 28.9395L10.4423 28.9391L12.191 29.9097ZM13.5764 27.4137L11.8277 26.4432L11.8292 26.4403L13.5764 27.4137ZM13.5617 26.6092L11.8469 27.6384L11.1524 26.4812L11.9655 25.4042L13.5617 26.6092ZM12.5002 27.333L17.9599 24.0577L20.0177 27.4878L14.5579 30.7631L12.5002 27.333ZM17.9591 24.0582C19.4696 23.151 21.5047 23.4914 22.5607 25.0171L19.2717 27.2936C19.4833 27.5993 19.8245 27.6038 20.0185 27.4873L17.9591 24.0582ZM22.5597 25.0155C22.9501 25.5785 23.1313 26.2092 23.1591 26.8072L19.1634 26.9929C19.1667 27.0637 19.1905 27.1765 19.2728 27.2951L22.5597 25.0155ZM20.2358 25.1271C20.7041 24.8826 21.2412 24.7361 21.8117 24.7361V28.7361C21.9313 28.7361 22.0255 28.705 22.0867 28.6731L20.2358 25.1271ZM21.8117 24.7361C22.0936 24.7361 22.3717 24.7712 22.6407 24.8382L21.6744 28.7197C21.7144 28.7297 21.7607 28.7361 21.8117 28.7361V24.7361ZM22.6423 24.8386C23.5245 25.059 24.2761 25.6166 24.7431 26.3955L21.3126 28.4526C21.3909 28.5831 21.5242 28.6822 21.6728 28.7193L22.6423 24.8386ZM24.7433 26.3957C25.2097 27.1738 25.3486 28.0985 25.1278 28.9809L21.2474 28.0102C21.21 28.1598 21.2353 28.3236 21.3125 28.4523L24.7433 26.3957ZM25.1281 28.9796C24.9191 29.8177 24.4092 30.5091 23.738 30.9674L21.4824 27.664C21.3846 27.7307 21.287 27.8514 21.2471 28.0114L25.1281 28.9796ZM23.6263 27.5931C24.0801 27.8607 24.5086 28.249 24.8226 28.7735L21.3906 30.828C21.4586 30.9416 21.5412 31.0072 21.594 31.0383L23.6263 27.5931ZM24.822 28.7725C25.2885 29.5507 25.4269 30.4746 25.2072 31.3562L21.3259 30.3889C21.289 30.5368 21.3139 30.7002 21.3912 30.829L24.822 28.7725ZM25.2068 31.3579C24.9861 32.24 24.4283 32.9907 23.6503 33.4576L21.5917 30.0281C21.463 30.1053 21.3637 30.2378 21.3263 30.3872L25.2068 31.3579ZM23.681 33.4389L23.6791 33.44L21.5591 30.048L21.561 30.0469L23.681 33.4389ZM23.6472 30.0285C24.0928 30.2955 24.5126 30.6793 24.822 31.1943L21.3931 33.2541C21.4593 33.3643 21.5394 33.4286 21.5911 33.4596L23.6472 30.0285ZM24.8224 31.195C25.2898 31.9737 25.4283 32.8987 25.2078 33.7809L21.3271 32.8113C21.29 32.9599 21.315 33.1239 21.3927 33.2534L24.8224 31.195ZM25.2075 33.7824C24.9867 34.6634 24.4296 35.4141 23.6517 35.8811L21.5927 32.4518C21.4632 32.5295 21.3646 32.662 21.3275 32.8099L25.2075 33.7824ZM23.6511 35.8815L16.9847 39.8808L14.9269 36.4507L21.5933 32.4514L23.6511 35.8815ZM16.9844 39.881C15.3303 40.8729 13.3845 41.2334 11.5061 40.8498L12.3066 36.9307C13.162 37.1054 14.0929 36.9509 14.9272 36.4505L16.9844 39.881ZM11.506 40.8497C9.6041 40.4612 7.97196 39.3481 6.97535 37.6867L10.4055 35.6291C10.7979 36.2832 11.4502 36.7557 12.3067 36.9307L11.506 40.8497ZM6.97546 37.6869C5.43871 35.1257 5.67651 32.0395 7.57702 29.737L10.6619 32.2833C9.83562 33.2843 9.74398 34.5265 10.4054 35.6289L6.97546 37.6869ZM7.5791 29.7345C7.63065 29.6722 7.652 29.6439 7.66164 29.6301L10.9368 31.9265C10.8348 32.072 10.7331 32.1973 10.6598 32.2858L7.5791 29.7345ZM7.66314 29.628C7.72001 29.5471 7.78681 29.4513 7.80817 29.4206L11.0937 31.7021C11.068 31.7392 10.9967 31.8413 10.9353 31.9286L7.66314 29.628ZM7.70578 29.5844C7.77406 29.4624 8.38209 28.3675 8.97718 27.2956C9.2738 26.7613 9.56601 26.2349 9.78406 25.8421C9.89308 25.6457 9.98356 25.4827 10.0468 25.3688C10.0784 25.3118 10.1032 25.2672 10.1201 25.2367C10.1285 25.2215 10.135 25.2098 10.1394 25.202C10.1416 25.198 10.1432 25.195 10.1444 25.1929C10.1449 25.1919 10.1454 25.1911 10.1458 25.1904C10.1459 25.1901 10.1462 25.1897 10.1464 25.1893C10.1465 25.1891 10.1469 25.1884 10.1471 25.188C10.1478 25.1868 12.8297 24.3929 13.6834 27.0552L10.1057 25.2664C10.9595 27.9288 13.6414 27.1349 13.642 27.1337C13.6422 27.1333 13.6425 27.1328 13.6426 27.1327C13.6427 27.1325 13.6427 27.1325 13.6426 27.1327C13.6424 27.1331 13.642 27.1337 13.6415 27.1347C13.6404 27.1366 13.6388 27.1395 13.6366 27.1434C13.6323 27.1512 13.6258 27.1628 13.6174 27.178C13.6005 27.2085 13.5757 27.2531 13.5441 27.3101C13.4809 27.424 13.3904 27.587 13.2814 27.7834C13.0633 28.1763 12.7711 28.7027 12.4744 29.2371C11.8829 30.3026 11.2689 31.4081 11.1961 31.5383L7.70578 29.5844ZM10.1453 25.1914C10.745 24.1092 11.8672 23.5033 13.0136 23.5039L13.0114 27.5039C13.2588 27.5041 13.5093 27.3733 13.6439 27.1303L10.1453 25.1914ZM13.0125 23.5039C13.5519 23.5039 14.0998 23.6373 14.6012 23.9154L12.6612 27.4134C12.77 27.4738 12.8924 27.5039 13.0125 27.5039V23.5039ZM14.6066 23.9184C15.148 24.2208 15.6029 24.6611 15.9224 25.1948L12.4906 27.2497C12.5317 27.3184 12.5884 27.3727 12.6558 27.4104L14.6066 23.9184ZM15.9215 25.1933C16.5739 26.2807 16.6004 27.6417 15.98 28.7539L12.4867 26.8052C12.4054 26.9511 12.4116 27.118 12.4915 27.2513L15.9215 25.1933ZM15.9819 28.7505L15.2776 30.0189L11.7805 28.0771L12.4848 26.8087L15.9819 28.7505ZM11.8465 27.6376C11.9533 27.8157 12.1076 27.9651 12.2879 28.0661L14.2435 24.5767C14.6692 24.8153 15.0242 25.1588 15.2771 25.5806L11.8465 27.6376ZM12.2973 28.0713C13.0046 28.4628 13.9053 28.2127 14.3033 27.4925L10.8023 25.5579C11.4796 24.3321 13.0192 23.8992 14.2341 24.5715L12.2973 28.0713ZM14.3014 27.4958C12.6703 30.4344 12.0807 31.4972 11.8399 31.897L8.41317 29.8337C8.60593 29.5136 9.13969 28.5531 10.8041 25.5546L14.3014 27.4958ZM10.5898 28.9198L10.5947 28.921L9.66826 32.8122L9.66331 32.811L10.5898 28.9198ZM12.0467 31.4426C12.0462 31.4445 12.0112 31.5681 11.9501 31.7078C11.8885 31.8485 11.8232 31.957 11.7831 32.0207C11.7227 32.1167 11.6334 32.2431 11.5535 32.3571L8.27646 30.0635C8.32759 29.9904 8.36053 29.9433 8.38433 29.9089C8.41103 29.8702 8.40936 29.8717 8.39856 29.8888C8.38549 29.9096 8.33602 29.989 8.28573 30.1039C8.23589 30.2178 8.20776 30.3188 8.21626 30.2905L12.0467 31.4426ZM11.5514 32.3602C11.4407 32.5177 11.3301 32.6553 11.2436 32.7603L8.15569 30.2177C8.21862 30.1413 8.25454 30.0947 8.27863 30.0604L11.5514 32.3602ZM11.2421 32.7621C10.6065 33.5322 10.544 34.3979 11.0503 35.2422L7.62002 37.2996C6.23836 34.9959 6.44806 32.2867 8.15718 30.2159L11.2421 32.7621ZM11.0503 35.2422C11.3305 35.7093 11.8045 36.0604 12.4566 36.1935L11.6565 40.1127C9.96826 39.768 8.50936 38.7823 7.62005 37.2997L11.0503 35.2422ZM12.4551 36.1932C13.1257 36.3296 13.8656 36.2099 14.5394 35.8056L16.5974 39.2355C15.107 40.1298 13.3533 40.4577 11.658 40.113L12.4551 36.1932ZM14.5396 35.8055L21.2066 31.806L23.2643 35.2361L16.5973 39.2356L14.5396 35.8055ZM21.2076 31.8054C20.9049 31.9867 20.6835 32.2844 20.5975 32.6288L24.4784 33.5977C24.3066 34.2856 23.8703 34.8731 23.2632 35.2368L21.2076 31.8054ZM20.5976 32.6282C20.5114 32.9731 20.5672 33.3395 20.7483 33.641L24.1773 31.5814C24.5412 32.1873 24.6502 32.9104 24.4782 33.5983L20.5976 32.6282ZM20.7478 33.6402C21.1257 34.27 21.9459 34.4818 22.585 34.0969L20.5213 30.6703C21.7871 29.908 23.4239 30.3257 24.1778 31.5822L20.7478 33.6402ZM22.582 34.0987L19.2931 36.0718L17.2353 32.6417L20.5242 30.6686L22.582 34.0987ZM19.2938 36.0714C18.1712 36.7455 16.7084 36.3855 16.0318 35.2549L19.4642 33.2009C19.001 32.4269 18.001 32.1819 17.2345 32.6422L19.2938 36.0714ZM16.0334 35.2575C15.3576 34.1322 15.7224 32.6726 16.8472 31.9971L18.9065 35.4263C19.6751 34.9647 19.9245 33.9673 19.4626 33.1982L16.0334 35.2575ZM16.848 31.9966L20.1372 30.0235L22.1949 33.4536L18.9057 35.4268L16.848 31.9966ZM20.1372 30.0235L21.2054 29.3827L23.2631 32.8128L22.1949 33.4536L20.1372 30.0235ZM21.2045 29.3832C20.9056 29.5627 20.6836 29.8581 20.5969 30.2045L24.4771 31.1758C24.3047 31.8648 23.8672 32.4499 23.264 32.8122L21.2045 29.3832ZM20.5965 30.2057C20.5109 30.5489 20.5656 30.9156 20.748 31.2188L24.1756 29.1569C24.5409 29.7641 24.6489 30.4878 24.4774 31.1746L20.5965 30.2057ZM20.7471 31.2172C21.1267 31.8496 21.9467 32.0563 22.5818 31.6749L20.5226 28.2456C21.784 27.4883 23.4205 27.899 24.1766 29.1585L20.7471 31.2172ZM22.5811 31.6753L18.2237 34.2893L16.166 30.8592L20.5233 28.2452L22.5811 31.6753ZM18.2241 34.289C17.0972 34.9654 15.6387 34.5986 14.964 33.475L18.3932 31.4157C17.9324 30.6484 16.9352 30.3974 16.1655 30.8594L18.2241 34.289ZM14.964 33.475C14.2873 32.3482 14.6549 30.8898 15.7768 30.2152L17.8381 33.6432C18.6043 33.1824 18.856 32.1863 18.3932 31.4157L14.964 33.475ZM15.7786 30.2141L21.1265 27.006L23.1842 30.4361L17.8363 33.6442L15.7786 30.2141ZM21.1256 27.0065C20.8258 27.1866 20.6037 27.483 20.5174 27.8288L24.3983 28.7977C24.2262 29.487 23.7893 30.0727 23.1851 30.4356L21.1256 27.0065ZM20.5176 27.8282C20.4314 28.1729 20.4872 28.5385 20.6672 28.839L24.0986 26.7833C24.461 27.3883 24.5701 28.1105 24.3981 28.7983L20.5176 27.8282ZM20.6679 28.8402C20.8492 29.1423 21.1465 29.3634 21.4907 29.4494L22.4595 25.5685C23.1472 25.7401 23.7343 26.1761 24.0979 26.7822L20.6679 28.8402ZM21.4931 29.45C21.8329 29.5343 22.1984 29.4806 22.5013 29.299L20.4448 25.8681C21.0511 25.5047 21.7719 25.3977 22.4571 25.5678L21.4931 29.45ZM22.502 29.2986L21.512 29.8926L19.4541 26.4625L20.4441 25.8686L22.502 29.2986ZM20.4831 30.1775C20.5667 30.1775 20.6547 30.1723 20.7462 30.1601C20.8379 30.148 20.9302 30.1292 21.0223 30.1035C21.1144 30.0777 21.2023 30.0459 21.2857 30.0094C21.3689 29.9729 21.4443 29.9331 21.5119 29.8926C21.5792 29.8522 21.6374 29.8119 21.6864 29.775C21.7351 29.7383 21.7752 29.7045 21.8061 29.6773C21.8216 29.6637 21.8351 29.6513 21.8465 29.6407C21.8578 29.6301 21.8674 29.621 21.8748 29.6138C21.8821 29.6067 21.8879 29.6009 21.8915 29.5974C21.8947 29.5942 21.8975 29.5915 21.897 29.5919C21.897 29.5919 21.897 29.5919 21.897 29.5919C21.897 29.5919 21.8969 29.592 21.8969 29.592C21.8969 29.5921 21.8968 29.5921 21.8966 29.5923C21.8964 29.5925 21.8961 29.5928 21.8956 29.5933C21.8947 29.5942 21.8933 29.5956 21.8914 29.5974C21.8879 29.601 21.882 29.6068 21.8747 29.6139C21.8673 29.621 21.8577 29.6302 21.8464 29.6408C21.835 29.6513 21.8215 29.6637 21.806 29.6774C21.7751 29.7046 21.7349 29.7384 21.6862 29.7751C21.6372 29.812 21.5791 29.8523 21.5117 29.8927C21.4441 29.9333 21.3687 29.9731 21.2854 30.0096C21.202 30.0461 21.1141 30.0779 21.0219 30.1037C20.9299 30.1295 20.8376 30.1482 20.7458 30.1604C20.6543 30.1725 20.5662 30.1778 20.4826 30.1778V26.1778C20.399 26.1778 20.3109 26.183 20.2194 26.1952C20.1277 26.2073 20.0354 26.2261 19.9434 26.2518C19.8513 26.2776 19.7634 26.3094 19.68 26.3459C19.5968 26.3824 19.5214 26.4222 19.4537 26.4627C19.3864 26.5031 19.3282 26.5434 19.2793 26.5803C19.2306 26.617 19.1904 26.6508 19.1596 26.678C19.1441 26.6917 19.1305 26.704 19.1192 26.7146C19.1079 26.7252 19.0983 26.7343 19.0909 26.7415C19.0836 26.7486 19.0777 26.7544 19.0742 26.7579C19.0709 26.7611 19.0682 26.7639 19.0687 26.7634C19.0687 26.7634 19.0687 26.7634 19.0687 26.7634C19.0687 26.7634 19.0687 26.7633 19.0687 26.7633C19.0688 26.7633 19.0689 26.7632 19.069 26.763C19.0692 26.7628 19.0696 26.7625 19.07 26.762C19.0709 26.7611 19.0724 26.7597 19.0742 26.7579C19.0778 26.7544 19.0836 26.7486 19.0909 26.7415C19.0983 26.7343 19.1079 26.7251 19.1192 26.7146C19.1306 26.704 19.1442 26.6916 19.1597 26.6779C19.1905 26.6507 19.2307 26.6169 19.2794 26.5802C19.3284 26.5433 19.3866 26.503 19.4539 26.4626C19.5216 26.422 19.597 26.3822 19.6802 26.3457C19.7636 26.3092 19.8516 26.2774 19.9437 26.2516C20.0358 26.2258 20.1281 26.2071 20.2198 26.1949C20.3113 26.1828 20.3994 26.1775 20.4831 26.1775V30.1775ZM20.4826 30.1778H20.4824V26.1778H20.4826V30.1778ZM21.5113 29.8928L17.1541 32.5068L15.0963 29.0767L19.4535 26.4627L21.5113 29.8928ZM17.1562 32.5055C16.0294 33.1834 14.5676 32.8174 13.8928 31.6899L17.3252 29.6359C16.8639 28.865 15.8639 28.6149 15.0942 29.0779L17.1562 32.5055ZM13.8944 31.6925C13.2178 30.5657 13.5853 29.1073 14.7072 28.4327L16.7685 31.8607C17.5347 31.3999 17.7864 30.4038 17.3236 29.6332L13.8944 31.6925ZM14.709 28.4316L19.0664 25.8176L21.1241 29.2478L16.7668 31.8617L14.709 28.4316ZM19.0655 25.8182C18.7667 25.9977 18.5446 26.293 18.4579 26.6394L22.3381 27.6108C22.1657 28.2998 21.7283 28.8849 21.125 29.2472L19.0655 25.8182ZM18.458 26.6389C18.3626 27.0194 18.4427 27.4182 18.6538 27.7229L21.9415 25.4445C22.376 26.0715 22.5276 26.8548 22.338 27.6113L18.458 26.6389ZM18.6525 27.7211C19.1291 28.4105 19.9255 28.4208 20.4059 28.1322L18.3456 24.7036C19.4541 24.0375 21.0788 24.1967 21.9428 25.4464L18.6525 27.7211ZM20.4046 28.1329L13.7425 32.1296L11.6847 28.6995L18.3469 24.7028L20.4046 28.1329ZM13.7397 32.1313C12.8209 32.6805 11.6438 32.5488 10.8696 31.8014L13.6477 28.9235C13.118 28.4123 12.3146 28.323 11.6875 28.6979L13.7397 32.1313ZM10.8695 31.8014C10.0947 31.0534 9.92092 29.8791 10.4421 28.9395L13.94 30.8798C14.2962 30.2376 14.1776 29.4351 13.6477 28.9236L10.8695 31.8014ZM10.4423 28.9391L11.8277 26.4432L15.3251 28.3843L13.9397 30.8803L10.4423 28.9391ZM11.8292 26.4403C11.6171 26.8211 11.6298 27.2766 11.8469 27.6384L15.2766 25.58C15.7901 26.4356 15.8136 27.5074 15.3235 28.3871L11.8292 26.4403ZM11.9655 25.4042L11.9656 25.4041L15.1581 27.8141L15.158 27.8142L11.9655 25.4042Z" fill="#1E318D" mask="url(#path-3-inside-2_56_417)"/>
<mask id="path-5-inside-3_56_417" fill="white">
<path d="M39.6181 36.6576C38.9238 37.8156 37.7819 38.6081 36.4025 38.8899C35.0353 39.1686 33.5974 38.9116 32.353 38.1655L25.686 34.166C25.3616 33.9714 25.1321 33.6623 25.0402 33.2952C24.949 32.9288 25.006 32.5483 25.2004 32.2241C25.3217 32.0215 25.4918 31.8618 25.689 31.7437L25.6871 31.7426C25.3627 31.548 25.1333 31.2389 25.0419 30.8723C24.95 30.5057 25.007 30.1249 25.2016 29.8003C25.3269 29.5918 25.4987 29.4288 25.6947 29.3131C25.4101 29.1173 25.2051 28.8329 25.1208 28.4956C25.0289 28.1287 25.0859 27.7482 25.2805 27.424C25.4749 27.0996 25.7842 26.8704 26.1508 26.7787C26.2653 26.75 26.3815 26.7359 26.4965 26.7359C26.7222 26.7361 26.9436 26.7933 27.1472 26.8998C27.1597 26.6362 27.2381 26.3773 27.3922 26.1551C27.8146 25.5456 28.6609 25.3769 29.3201 25.7725L34.7796 29.0473L34.0759 27.7798C33.8059 27.2958 33.8158 26.6988 34.1021 26.2215C34.2415 25.9892 34.4408 25.7963 34.679 25.6627C34.8748 25.5543 35.0869 25.5029 35.296 25.5029C35.7453 25.5032 36.1817 25.7402 36.4139 26.1598C37.2235 27.6184 38.7511 30.3692 38.8585 30.5613C38.8813 30.5945 38.9504 30.6934 39.0095 30.7776C39.0658 30.8574 39.1266 30.9338 39.1895 31.0096C40.5527 32.6621 40.7171 34.8261 39.6181 36.6576L39.6181 36.6576ZM38.6091 31.4891C38.5341 31.3984 38.4606 31.3058 38.3937 31.2104C38.1902 30.9215 38.185 30.914 38.1697 30.8384C37.9317 30.4447 37.3512 29.3996 35.7555 26.5248C35.6156 26.2725 35.2975 26.1803 35.0443 26.3203C34.9196 26.39 34.8195 26.4873 34.7465 26.6091C34.5985 26.8558 34.5928 27.164 34.7326 27.4142L36.1174 29.9094C36.2001 30.0583 36.1725 30.244 36.0503 30.3622C35.9282 30.4807 35.7416 30.5015 35.5951 30.4143L28.9329 26.4176C28.6189 26.2293 28.2049 26.3031 28.0108 26.5834C27.8991 26.7446 27.8635 26.9368 27.9102 27.1246C27.9531 27.2961 28.0607 27.4408 28.2132 27.5322C28.2136 27.5324 28.2139 27.5329 28.2143 27.5331L32.5703 30.1464C32.7484 30.2533 32.8062 30.4842 32.6992 30.6626C32.5922 30.8405 32.3616 30.8986 32.183 30.7914L26.8352 27.5833C26.6834 27.4924 26.5048 27.4655 26.3333 27.5087C26.1613 27.5515 26.0167 27.659 25.9255 27.8114C25.8341 27.9634 25.8077 28.1417 25.8501 28.3132C25.893 28.4847 26.0007 28.6296 26.1529 28.721L27.1935 29.3452L31.5005 31.9292C31.6786 32.0362 31.7363 32.2671 31.6293 32.4454C31.5224 32.6233 31.2917 32.6812 31.1131 32.5743L26.7562 29.9603C26.4429 29.7718 26.0348 29.8741 25.8464 30.1879C25.755 30.3401 25.7286 30.5184 25.771 30.6899C25.8139 30.8615 25.9215 31.0061 26.0739 31.0978L27.1422 31.7386L30.4308 33.7117C30.609 33.8187 30.6667 34.0496 30.5597 34.2279C30.4528 34.4058 30.2221 34.4642 30.0435 34.3568L26.7548 32.3837C26.6031 32.2927 26.4252 32.2659 26.2528 32.309C26.0813 32.3519 25.9361 32.4593 25.845 32.6112C25.7538 32.7634 25.7272 32.942 25.7696 33.1133C25.8124 33.2848 25.9201 33.4295 26.0725 33.5211L32.7395 37.5206C33.8214 38.1697 35.0691 38.3944 36.2514 38.1532C37.4213 37.9143 38.3878 37.2459 38.9725 36.271C39.9175 34.6967 39.7816 32.909 38.6095 31.4891L38.6091 31.4891Z"/>
</mask>
<path d="M39.6181 36.6576C38.9238 37.8156 37.7819 38.6081 36.4025 38.8899C35.0353 39.1686 33.5974 38.9116 32.353 38.1655L25.686 34.166C25.3616 33.9714 25.1321 33.6623 25.0402 33.2952C24.949 32.9288 25.006 32.5483 25.2004 32.2241C25.3217 32.0215 25.4918 31.8618 25.689 31.7437L25.6871 31.7426C25.3627 31.548 25.1333 31.2389 25.0419 30.8723C24.95 30.5057 25.007 30.1249 25.2016 29.8003C25.3269 29.5918 25.4987 29.4288 25.6947 29.3131C25.4101 29.1173 25.2051 28.8329 25.1208 28.4956C25.0289 28.1287 25.0859 27.7482 25.2805 27.424C25.4749 27.0996 25.7842 26.8704 26.1508 26.7787C26.2653 26.75 26.3815 26.7359 26.4965 26.7359C26.7222 26.7361 26.9436 26.7933 27.1472 26.8998C27.1597 26.6362 27.2381 26.3773 27.3922 26.1551C27.8146 25.5456 28.6609 25.3769 29.3201 25.7725L34.7796 29.0473L34.0759 27.7798C33.8059 27.2958 33.8158 26.6988 34.1021 26.2215C34.2415 25.9892 34.4408 25.7963 34.679 25.6627C34.8748 25.5543 35.0869 25.5029 35.296 25.5029C35.7453 25.5032 36.1817 25.7402 36.4139 26.1598C37.2235 27.6184 38.7511 30.3692 38.8585 30.5613C38.8813 30.5945 38.9504 30.6934 39.0095 30.7776C39.0658 30.8574 39.1266 30.9338 39.1895 31.0096C40.5527 32.6621 40.7171 34.8261 39.6181 36.6576L39.6181 36.6576ZM38.6091 31.4891C38.5341 31.3984 38.4606 31.3058 38.3937 31.2104C38.1902 30.9215 38.185 30.914 38.1697 30.8384C37.9317 30.4447 37.3512 29.3996 35.7555 26.5248C35.6156 26.2725 35.2975 26.1803 35.0443 26.3203C34.9196 26.39 34.8195 26.4873 34.7465 26.6091C34.5985 26.8558 34.5928 27.164 34.7326 27.4142L36.1174 29.9094C36.2001 30.0583 36.1725 30.244 36.0503 30.3622C35.9282 30.4807 35.7416 30.5015 35.5951 30.4143L28.9329 26.4176C28.6189 26.2293 28.2049 26.3031 28.0108 26.5834C27.8991 26.7446 27.8635 26.9368 27.9102 27.1246C27.9531 27.2961 28.0607 27.4408 28.2132 27.5322C28.2136 27.5324 28.2139 27.5329 28.2143 27.5331L32.5703 30.1464C32.7484 30.2533 32.8062 30.4842 32.6992 30.6626C32.5922 30.8405 32.3616 30.8986 32.183 30.7914L26.8352 27.5833C26.6834 27.4924 26.5048 27.4655 26.3333 27.5087C26.1613 27.5515 26.0167 27.659 25.9255 27.8114C25.8341 27.9634 25.8077 28.1417 25.8501 28.3132C25.893 28.4847 26.0007 28.6296 26.1529 28.721L27.1935 29.3452L31.5005 31.9292C31.6786 32.0362 31.7363 32.2671 31.6293 32.4454C31.5224 32.6233 31.2917 32.6812 31.1131 32.5743L26.7562 29.9603C26.4429 29.7718 26.0348 29.8741 25.8464 30.1879C25.755 30.3401 25.7286 30.5184 25.771 30.6899C25.8139 30.8615 25.9215 31.0061 26.0739 31.0978L27.1422 31.7386L30.4308 33.7117C30.609 33.8187 30.6667 34.0496 30.5597 34.2279C30.4528 34.4058 30.2221 34.4642 30.0435 34.3568L26.7548 32.3837C26.6031 32.2927 26.4252 32.2659 26.2528 32.309C26.0813 32.3519 25.9361 32.4593 25.845 32.6112C25.7538 32.7634 25.7272 32.942 25.7696 33.1133C25.8124 33.2848 25.9201 33.4295 26.0725 33.5211L32.7395 37.5206C33.8214 38.1697 35.0691 38.3944 36.2514 38.1532C37.4213 37.9143 38.3878 37.2459 38.9725 36.271C39.9175 34.6967 39.7816 32.909 38.6095 31.4891L38.6091 31.4891Z" fill="#1E318D"/>
<path d="M39.6181 36.6576L38.9728 34.7646L44.1418 33.0024L41.3334 37.6861L39.6181 36.6576ZM36.4025 38.8899L36.8027 40.8495L36.802 40.8496L36.4025 38.8899ZM32.353 38.1655L31.3245 39.8807L31.3241 39.8805L32.353 38.1655ZM25.686 34.166L26.7148 32.4509L26.7148 32.4509L25.686 34.166ZM25.0402 33.2952L23.1 33.7808L23.0994 33.7782L25.0402 33.2952ZM25.2004 32.2241L26.9163 33.2516L26.9157 33.2526L25.2004 32.2241ZM25.689 31.7437L26.749 30.0478L29.5217 31.7806L26.7162 33.4598L25.689 31.7437ZM25.6871 31.7426L26.716 30.0275L26.7316 30.0369L26.7471 30.0466L25.6871 31.7426ZM25.0419 30.8723L26.9819 30.386L26.9825 30.3884L25.0419 30.8723ZM25.2016 29.8003L23.4862 28.7719L23.4875 28.7699L25.2016 29.8003ZM25.6947 29.3131L26.8282 27.6653L29.4112 29.4422L26.7112 31.0355L25.6947 29.3131ZM25.1208 28.4956L27.0609 28.0096L27.0611 28.0105L25.1208 28.4956ZM25.2805 27.424L26.9962 28.4519L26.9953 28.4534L25.2805 27.424ZM26.1508 26.7787L26.6378 28.7186L26.6358 28.719L26.1508 26.7787ZM26.4965 26.7359V24.7359L26.4985 24.7359L26.4965 26.7359ZM27.1472 26.8998L29.1449 26.9945L28.9967 30.1246L26.22 28.672L27.1472 26.8998ZM27.3922 26.1551L29.036 27.2944L29.0357 27.2948L27.3922 26.1551ZM29.3201 25.7725L28.2913 27.4876L28.2911 27.4875L29.3201 25.7725ZM34.7796 29.0473L36.5282 28.0765L40.1507 34.6013L33.7509 30.7624L34.7796 29.0473ZM34.0759 27.7798L35.8225 26.8053L35.8245 26.809L34.0759 27.7798ZM34.1021 26.2215L32.3869 25.1929L32.3874 25.192L34.1021 26.2215ZM34.679 25.6627L33.7007 23.9182L33.7104 23.9129L34.679 25.6627ZM35.296 25.5029V23.5029H35.2971L35.296 25.5029ZM36.4139 26.1598L34.6652 27.1303L34.6641 27.1284L36.4139 26.1598ZM38.8585 30.5613L37.2108 31.6948L37.1582 31.6185L37.113 31.5376L38.8585 30.5613ZM39.0095 30.7776L37.3749 31.93L37.3734 31.9279L39.0095 30.7776ZM39.1895 31.0096L40.7291 29.733L40.7323 29.7369L39.1895 31.0096ZM39.6181 36.6576L40.2634 38.5507L35.0918 40.3137L37.9031 35.6286L39.6181 36.6576ZM38.6091 31.4891L38.8072 33.4793L37.7461 33.5849L37.0671 32.7628L38.6091 31.4891ZM38.3937 31.2104L40.0286 30.0583L40.0312 30.0621L38.3937 31.2104ZM38.1697 30.8384L39.8813 29.8038L40.061 30.101L40.1299 30.4415L38.1697 30.8384ZM35.7555 26.5248L34.0068 27.4954L34.0065 27.4948L35.7555 26.5248ZM35.0443 26.3203L34.0677 24.5749L34.077 24.5697L35.0443 26.3203ZM34.7465 26.6091L36.4618 27.6376L36.4616 27.6379L34.7465 26.6091ZM34.7326 27.4142L36.4788 26.4392L36.4813 26.4436L34.7326 27.4142ZM36.1174 29.9094L34.369 30.8804L34.3687 30.8799L36.1174 29.9094ZM36.0503 30.3622L34.657 28.9274L34.6598 28.9246L36.0503 30.3622ZM35.5951 30.4143L34.5726 32.1332L34.5662 32.1293L35.5951 30.4143ZM28.9329 26.4176L29.9611 24.7021L29.9618 24.7025L28.9329 26.4176ZM28.0108 26.5834L29.655 27.7221L29.6546 27.7226L28.0108 26.5834ZM27.9102 27.1246L25.9699 27.6097L25.9692 27.6068L27.9102 27.1246ZM28.2132 27.5322L27.3185 29.321L27.2501 29.2867L27.1846 29.2474L28.2132 27.5322ZM28.2143 27.5331L29.1089 25.7444L29.1775 25.7787L29.2432 25.8181L28.2143 27.5331ZM32.5703 30.1464L33.5992 28.4313L33.6 28.4318L32.5703 30.1464ZM32.6992 30.6626L34.4144 31.6913L34.4132 31.6932L32.6992 30.6626ZM32.183 30.7914L33.2118 29.0764L33.2124 29.0767L32.183 30.7914ZM26.8352 27.5833L27.8634 25.8679L27.864 25.8683L26.8352 27.5833ZM26.3333 27.5087L26.8209 29.4483L26.8172 29.4493L26.3333 27.5087ZM25.9255 27.8114L27.6419 28.838L27.6393 28.8423L25.9255 27.8114ZM25.8501 28.3132L23.9098 28.7983L23.9086 28.7933L25.8501 28.3132ZM26.1529 28.721L25.1242 30.4362L25.1231 30.4356L26.1529 28.721ZM27.1935 29.3452L28.2222 27.63L28.2225 27.6301L27.1935 29.3452ZM31.5005 31.9292L32.5294 30.2142L32.5301 30.2146L31.5005 31.9292ZM31.6293 32.4454L33.3445 33.4741L33.3433 33.4761L31.6293 32.4454ZM31.1131 32.5743L30.0854 34.29L30.0842 34.2893L31.1131 32.5743ZM26.7562 29.9603L25.7273 31.6753L25.7254 31.6742L26.7562 29.9603ZM25.8464 30.1879L27.5609 31.2176L27.5609 31.2177L25.8464 30.1879ZM25.771 30.6899L23.8307 31.175L23.8294 31.17L25.771 30.6899ZM26.0739 31.0978L25.0451 32.8128L25.0434 32.8118L26.0739 31.0978ZM27.1422 31.7386L28.171 30.0235L28.1711 30.0236L27.1422 31.7386ZM30.4308 33.7117L31.4598 31.9967L31.4605 31.9971L30.4308 33.7117ZM30.5597 34.2279L32.2749 35.2566L32.2737 35.2586L30.5597 34.2279ZM30.0435 34.3568L31.0725 32.6418L31.0745 32.643L30.0435 34.3568ZM26.7548 32.3837L27.783 30.6682L27.7838 30.6687L26.7548 32.3837ZM26.2528 32.309L25.7677 30.3687L25.7677 30.3687L26.2528 32.309ZM25.845 32.6112L24.1293 31.5834L24.13 31.5823L25.845 32.6112ZM25.7696 33.1133L23.8293 33.5984L23.8282 33.594L25.7696 33.1133ZM26.0725 33.5211L25.0437 35.2362L25.042 35.2352L26.0725 33.5211ZM32.7395 37.5206L33.7684 35.8055L33.7685 35.8056L32.7395 37.5206ZM36.2514 38.1532L36.6515 40.1127L36.6513 40.1128L36.2514 38.1532ZM38.9725 36.271L37.2574 35.2422L37.2577 35.2417L38.9725 36.271ZM38.6095 31.4891L38.4113 29.4989L39.4728 29.3932L40.1519 30.2159L38.6095 31.4891ZM41.3334 37.6861C40.3369 39.348 38.7049 40.4609 36.8027 40.8495L36.0022 36.9304C36.8589 36.7554 37.5107 36.2831 37.9028 35.6291L41.3334 37.6861ZM36.802 40.8496C34.9242 41.2324 32.9791 40.8728 31.3245 39.8807L33.3815 36.4502C34.2157 36.9504 35.1464 37.1049 36.0029 36.9302L36.802 40.8496ZM31.3241 39.8805L24.6571 35.881L26.7148 32.4509L33.3818 36.4504L31.3241 39.8805ZM24.6572 35.8811C23.8789 35.4142 23.3209 34.6633 23.1 33.7808L26.9803 32.8096C26.9432 32.6612 26.8442 32.5285 26.7148 32.4509L24.6572 35.8811ZM23.0994 33.7782C22.88 32.8968 23.0191 31.9729 23.4851 31.1957L26.9157 33.2526C26.9929 33.1238 27.018 32.9609 26.981 32.8122L23.0994 33.7782ZM23.4845 31.1966C23.7947 30.6786 24.2164 30.2943 24.6619 30.0277L26.7162 33.4598C26.7673 33.4293 26.8487 33.3644 26.9163 33.2516L23.4845 31.1966ZM24.629 33.4397L24.6271 33.4386L26.7471 30.0466L26.749 30.0478L24.629 33.4397ZM24.6583 33.4577C23.8805 32.9911 23.3216 32.24 23.1013 31.3561L26.9825 30.3884C26.9449 30.2378 26.845 30.1049 26.716 30.0275L24.6583 33.4577ZM23.1019 31.3585C22.8804 30.4748 23.0201 29.5495 23.4862 28.7719L26.917 30.8287C26.9939 30.7004 27.0196 30.5365 26.9819 30.386L23.1019 31.3585ZM23.4875 28.7699C23.794 28.2599 24.2127 27.8654 24.6782 27.5906L26.7112 31.0355C26.7847 30.9921 26.8598 30.9237 26.9157 30.8307L23.4875 28.7699ZM24.5612 30.9609C23.8956 30.503 23.389 29.8148 23.1805 28.9806L27.0611 28.0105C27.0212 27.8511 26.9246 27.7316 26.8282 27.6653L24.5612 30.9609ZM23.1807 28.9815C22.9594 28.0981 23.0988 27.1726 23.5657 26.3947L26.9953 28.4534C27.0731 28.3238 27.0984 28.1594 27.0609 28.0096L23.1807 28.9815ZM23.5649 26.3961C24.0322 25.6162 24.7843 25.0588 25.6659 24.8384L26.6358 28.719C26.7842 28.682 26.9176 28.583 26.9962 28.4519L23.5649 26.3961ZM25.6639 24.8389C25.9379 24.7701 26.2177 24.7359 26.4965 24.7359V28.7359C26.5453 28.7359 26.5927 28.7299 26.6378 28.7186L25.6639 24.8389ZM26.4985 24.7359C27.0651 24.7365 27.6022 24.8807 28.0743 25.1277L26.22 28.672C26.285 28.706 26.3792 28.7357 26.4944 28.7359L26.4985 24.7359ZM25.1494 26.8052C25.1776 26.2097 25.3577 25.5792 25.7487 25.0154L29.0357 27.2948C29.1185 27.1753 29.1417 27.0627 29.1449 26.9945L25.1494 26.8052ZM25.7484 25.0158C26.804 23.4928 28.8369 23.1501 30.3491 24.0575L28.2911 27.4875C28.4849 27.6037 28.8252 27.5984 29.036 27.2944L25.7484 25.0158ZM30.3489 24.0574L35.8084 27.3322L33.7509 30.7624L28.2913 27.4876L30.3489 24.0574ZM33.0311 30.0181L32.3273 28.7506L35.8245 26.809L36.5282 28.0765L33.0311 30.0181ZM32.3294 28.7542C31.7089 27.6422 31.7341 26.2813 32.3869 25.1929L35.8173 27.2501C35.8975 27.1163 35.9029 26.9495 35.8225 26.8053L32.3294 28.7542ZM32.3874 25.192C32.7077 24.6585 33.1621 24.2204 33.7007 23.9183L35.6573 27.4071C35.7196 27.3721 35.7754 27.3199 35.8167 27.251L32.3874 25.192ZM33.7104 23.9129C34.211 23.6358 34.7576 23.5029 35.296 23.5029V27.5029C35.4161 27.5029 35.5387 27.4728 35.6476 27.4125L33.7104 23.9129ZM35.2971 23.5029C36.4392 23.5035 37.5631 24.1061 38.1638 25.1913L34.6641 27.1284C34.8002 27.3743 35.0515 27.5028 35.295 27.5029L35.2971 23.5029ZM38.1627 25.1893C38.9736 26.6505 40.4987 29.3967 40.604 29.5849L37.113 31.5376C37.0034 31.3418 35.4733 28.5864 34.6652 27.1303L38.1627 25.1893ZM40.5062 29.4277C40.5231 29.4522 40.5873 29.5443 40.6456 29.6272L37.3734 31.9279C37.3135 31.8426 37.2396 31.7368 37.2108 31.6948L40.5062 29.4277ZM40.6441 29.6251C40.6573 29.6438 40.6809 29.6749 40.7291 29.733L37.6499 32.2862C37.5723 32.1926 37.4743 32.071 37.3749 31.93L40.6441 29.6251ZM40.7323 29.7369C42.6322 32.04 42.8697 35.1257 41.333 37.6867L37.9031 35.6286C38.5645 34.5264 38.4732 33.2842 37.6467 32.2823L40.7323 29.7369ZM38.9727 34.7646L38.9728 34.7646L40.2635 38.5506L40.2634 38.5507L38.9727 34.7646ZM37.0671 32.7628C36.9781 32.6551 36.8669 32.5164 36.7562 32.3587L40.0312 30.0621C40.0544 30.0952 40.0902 30.1417 40.1511 30.2154L37.0671 32.7628ZM36.7589 32.3625C36.6839 32.256 36.5746 32.1034 36.4991 31.9784C36.4462 31.8908 36.37 31.7541 36.305 31.577C36.2418 31.4047 36.214 31.2577 36.2095 31.2353L40.1299 30.4415C40.133 30.4569 40.1116 30.3391 40.06 30.1986C40.0067 30.0532 39.9473 29.9506 39.9231 29.9104C39.9039 29.8787 39.8947 29.8669 39.9208 29.9047C39.9434 29.9374 39.9755 29.9829 40.0286 30.0583L36.7589 32.3625ZM36.458 31.8729C36.1949 31.4376 35.5858 30.3401 34.0068 27.4954L37.5042 25.5542C39.1167 28.4591 39.6685 29.4518 39.8813 29.8038L36.458 31.8729ZM34.0065 27.4948C34.4003 28.2049 35.2966 28.4659 36.0115 28.0708L34.077 24.5697C35.2985 23.8948 36.8308 24.34 37.5045 25.5547L34.0065 27.4948ZM36.0208 28.0657C36.2007 27.965 36.3553 27.8152 36.4618 27.6376L33.0312 25.5807C33.2837 25.1595 33.6385 24.815 34.0677 24.5749L36.0208 28.0657ZM36.4616 27.6379C36.6788 27.2758 36.6913 26.8198 36.4788 26.4392L32.9863 28.3892C32.4944 27.5082 32.5182 26.4358 33.0313 25.5804L36.4616 27.6379ZM36.4813 26.4436L37.8661 28.9389L34.3687 30.8799L32.9838 28.3847L36.4813 26.4436ZM37.8659 28.9384C38.3876 29.8778 38.2144 31.0515 37.4407 31.7998L34.6598 28.9246C34.1307 29.4364 34.0126 30.2388 34.369 30.8804L37.8659 28.9384ZM37.4435 31.7971C36.6632 32.5548 35.4842 32.6755 34.5726 32.1332L36.6176 28.6954C35.999 28.3275 35.1933 28.4066 34.657 28.9274L37.4435 31.7971ZM34.5662 32.1293L27.904 28.1326L29.9618 24.7025L36.624 28.6992L34.5662 32.1293ZM27.9047 28.133C28.3822 28.4193 29.1777 28.4114 29.655 27.7221L26.3665 25.4448C27.2322 24.1948 28.8555 24.0394 29.9611 24.7021L27.9047 28.133ZM29.6546 27.7226C29.8666 27.4168 29.9448 27.0193 29.8512 26.6424L25.9692 27.6068C25.7823 26.8544 25.9316 26.0724 26.3669 25.4443L29.6546 27.7226ZM29.8505 26.6395C29.7635 26.2918 29.5404 25.9961 29.2418 25.817L27.1846 29.2474C26.5811 28.8855 26.1426 28.3004 25.9699 27.6097L29.8505 26.6395ZM29.1078 25.7434C29.1977 25.7884 29.276 25.836 29.3427 25.8817C29.409 25.9271 29.4634 25.9702 29.5053 26.0056C29.5263 26.0234 29.5446 26.0396 29.5599 26.0535C29.5752 26.0674 29.5881 26.0796 29.598 26.0891C29.6078 26.0985 29.6157 26.1063 29.6204 26.111C29.6229 26.1134 29.6248 26.1153 29.626 26.1165C29.6266 26.1171 29.6271 26.1176 29.6274 26.1179C29.6276 26.1181 29.6277 26.1182 29.6278 26.1183C29.6278 26.1183 29.6278 26.1183 29.6278 26.1183C29.6279 26.1184 29.6279 26.1184 29.6279 26.1184C29.6279 26.1184 29.6279 26.1184 29.6279 26.1184C29.628 26.1185 29.6271 26.1176 29.6261 26.1166C29.6249 26.1154 29.623 26.1135 29.6206 26.1111C29.6159 26.1064 29.608 26.0988 29.5983 26.0894C29.5884 26.0799 29.5756 26.0678 29.5603 26.0539C29.5451 26.04 29.5268 26.0239 29.5059 26.0061C29.4641 25.9708 29.4098 25.9277 29.3436 25.8825C29.2769 25.8368 29.1988 25.7893 29.1089 25.7444L27.3197 29.3219C27.2298 29.2769 27.1515 29.2293 27.0847 29.1836C27.0185 29.1383 26.964 29.0952 26.9222 29.0597C26.9012 29.042 26.8829 29.0257 26.8675 29.0118C26.8523 28.9979 26.8394 28.9857 26.8295 28.9762C26.8197 28.9668 26.8118 28.9591 26.8071 28.9544C26.8046 28.952 26.8027 28.95 26.8015 28.9488C26.8009 28.9482 26.8004 28.9477 26.8001 28.9474C26.7999 28.9473 26.7998 28.9472 26.7997 28.9471C26.7997 28.947 26.7997 28.947 26.7996 28.947C26.7996 28.947 26.7996 28.947 26.7996 28.947C26.7996 28.947 26.7996 28.947 26.7996 28.947C26.7994 28.9468 26.8003 28.9477 26.8014 28.9488C26.8026 28.9499 26.8045 28.9519 26.8069 28.9542C26.8116 28.9589 26.8194 28.9666 26.8292 28.976C26.8391 28.9854 26.8519 28.9975 26.8671 29.0114C26.8824 29.0253 26.9007 29.0415 26.9216 29.0592C26.9634 29.0946 27.0177 29.1376 27.0839 29.1829C27.1506 29.2285 27.2287 29.276 27.3185 29.321L29.1078 25.7434ZM29.2432 25.8181L33.5992 28.4313L31.5414 31.8614L27.1854 29.2482L29.2432 25.8181ZM33.6 28.4318C34.725 29.1074 35.089 30.5664 34.4144 31.6913L30.984 29.6339C30.5233 30.4021 30.7718 31.3993 31.5407 31.861L33.6 28.4318ZM34.4132 31.6932C33.7393 32.8139 32.2821 33.1836 31.1536 32.5062L33.2124 29.0767C32.4411 28.6137 31.4451 28.867 30.9852 29.6319L34.4132 31.6932ZM31.1541 32.5065L25.8063 29.2984L27.864 25.8683L33.2118 29.0764L31.1541 32.5065ZM25.8069 29.2988C26.1075 29.4789 26.4738 29.5356 26.8209 29.4483L25.8458 25.569C26.5359 25.3955 27.2594 25.5059 27.8634 25.8679L25.8069 29.2988ZM26.8172 29.4493C27.1629 29.3631 27.461 29.1405 27.6419 28.838L24.2091 26.7847C24.5724 26.1774 25.1598 25.74 25.8495 25.5681L26.8172 29.4493ZM27.6393 28.8423C27.8224 28.538 27.8756 28.1727 27.7917 27.8332L23.9086 28.7933C23.7398 28.1107 23.8458 27.3887 24.2117 26.7805L27.6393 28.8423ZM27.7904 27.8282C27.7038 27.4818 27.4818 27.1862 27.1826 27.0065L25.1231 30.4356C24.5196 30.0731 24.0822 29.4876 23.9098 28.7983L27.7904 27.8282ZM27.1815 27.0059L28.2222 27.63L26.1648 31.0603L25.1242 30.4362L27.1815 27.0059ZM28.2225 27.6301L32.5294 30.2142L30.4715 33.6442L26.1646 31.0602L28.2225 27.6301ZM32.5301 30.2146C33.6552 30.8902 34.0192 32.3492 33.3445 33.4741L29.9142 31.4167C29.4534 32.1849 29.702 33.1821 30.4708 33.6438L32.5301 30.2146ZM33.3433 33.4761C32.6683 34.5986 31.2113 34.9644 30.0854 34.29L32.1408 30.8585C31.3722 30.3981 30.3764 30.648 29.9153 31.4148L33.3433 33.4761ZM30.0842 34.2893L25.7273 31.6753L27.7852 28.2453L32.1421 30.8593L30.0842 34.2893ZM25.7254 31.6742C26.3623 32.0573 27.1824 31.8479 27.5609 31.2176L24.1318 29.1581C24.8873 27.9003 26.5235 27.4864 27.7871 28.2465L25.7254 31.6742ZM27.5609 31.2177C27.7429 30.9145 27.7965 30.5498 27.7125 30.2099L23.8294 31.17C23.6606 30.4871 23.767 29.7656 24.1318 29.1581L27.5609 31.2177ZM27.7113 30.2049C27.6243 29.8569 27.4012 29.5621 27.1045 29.3837L25.0434 32.8118C24.4418 32.4501 24.0034 31.866 23.8307 31.175L27.7113 30.2049ZM27.1028 29.3827L28.171 30.0235L26.1133 33.4536L25.0451 32.8128L27.1028 29.3827ZM28.1711 30.0236L31.4598 31.9967L29.4019 35.4267L26.1132 33.4536L28.1711 30.0236ZM31.4605 31.9971C32.5855 32.6728 32.9495 34.1318 32.2749 35.2566L28.8445 33.1992C28.3838 33.9674 28.6324 34.9646 29.4012 35.4263L31.4605 31.9971ZM32.2737 35.2586C31.601 36.3773 30.1436 36.751 29.0125 36.0706L31.0745 32.643C30.3006 32.1774 29.3045 32.4343 28.8457 33.1973L32.2737 35.2586ZM29.0146 36.0718L25.7259 34.0987L27.7838 30.6687L31.0725 32.6418L29.0146 36.0718ZM25.7266 34.0991C26.0277 34.2796 26.3939 34.3352 26.7378 34.2493L25.7677 30.3687C26.4566 30.1965 27.1785 30.3058 27.783 30.6682L25.7266 34.0991ZM26.7378 34.2493C27.0809 34.1635 27.3782 33.9431 27.5599 33.6402L24.13 31.5823C24.494 30.9755 25.0816 30.5402 25.7677 30.3687L26.7378 34.2493ZM27.5606 33.6391C27.7406 33.3386 27.7957 32.975 27.7109 32.6326L23.8282 33.594C23.6586 32.9091 23.7669 32.1883 24.1293 31.5834L27.5606 33.6391ZM27.7098 32.6282C27.6229 32.2803 27.3998 31.9855 27.1031 31.8071L25.042 35.2352C24.4404 34.8735 24.002 34.2894 23.8293 33.5984L27.7098 32.6282ZM27.1014 31.8061L33.7684 35.8055L31.7107 39.2357L25.0437 35.2362L27.1014 31.8061ZM33.7685 35.8056C34.4429 36.2102 35.1834 36.3299 35.8515 36.1935L36.6513 40.1128C34.9549 40.4589 33.1999 40.1292 31.7106 39.2356L33.7685 35.8056ZM35.8513 36.1936C36.5032 36.0605 36.9772 35.7094 37.2574 35.2422L40.6877 37.2997C39.7984 38.7823 38.3395 39.7681 36.6515 40.1127L35.8513 36.1936ZM37.2577 35.2417C37.7648 34.3969 37.702 33.5314 37.0671 32.7622L40.1519 30.2159C41.8611 32.2866 42.0702 34.9965 40.6873 37.3003L37.2577 35.2417ZM38.8076 33.4792L38.8072 33.4793L38.4109 29.4989L38.4113 29.4989L38.8076 33.4792Z" fill="#1E318D" mask="url(#path-5-inside-3_56_417)"/>
</svg>
